<?xml version="1.0" encoding="UTF-8" standalone="no"?>
<!-- Created with Inkscape (http://www.inkscape.org/) -->

<svg
   version="1.1"
   id="svg888"
   width="1066.6667"
   height="14933.333"
   viewBox="0 0 1066.6667 14933.333"
   sodipodi:docname="toa.svg"
   inkscape:version="1.1 (c68e22c387, 2021-05-23)"
   inkscape:export-filename="toa.png"
   inkscape:export-xdpi="72"
   inkscape:export-ydpi="72"
   xmlns:inkscape="http://www.inkscape.org/namespaces/inkscape"
   xmlns:sodipodi="http://sodipodi.sourceforge.net/DTD/sodipodi-0.dtd"
   xmlns:xlink="http://www.w3.org/1999/xlink"
   xmlns="http://www.w3.org/2000/svg"
   xmlns:svg="http://www.w3.org/2000/svg">
  <defs
     id="defs892" />
  <sodipodi:namedview
     id="namedview890"
     pagecolor="#ffffff"
     bordercolor="#666666"
     borderopacity="1.0"
     inkscape:pageshadow="2"
     inkscape:pageopacity="0.0"
     inkscape:pagecheckerboard="0"
     showgrid="false"
     inkscape:zoom="0.75"
     inkscape:cx="420.66667"
     inkscape:cy="10290"
     inkscape:window-width="1888"
     inkscape:window-height="1014"
     inkscape:window-x="0"
     inkscape:window-y="0"
     inkscape:window-maximized="1"
     inkscape:current-layer="g894"
     inkscape:snap-global="true"
     inkscape:object-paths="true" />
  <g
     inkscape:groupmode="layer"
     inkscape:label="Image"
     id="g894">
    <image
       width="1066.6667"
       height="14933.333"
       preserveAspectRatio="none"
       xlink:href="blank.png"
       id="image896"
       sodipodi:insensitive="true" />
    <text
       xml:space="preserve"
       style="font-size:53.3333px;line-height:1.1;font-family:Inter;-inkscape-font-specification:'Inter, Normal';stroke-width:1"
       x="510.70529"
       y="2591.7649"
       id="text1891"><tspan
         sodipodi:role="line"
         x="510.70529"
         y="2591.7649"
         style="font-style:normal;font-variant:normal;font-weight:normal;font-stretch:normal;font-size:53.3333px;font-family:'SH Pinscher';-inkscape-font-specification:'SH Pinscher';text-align:center;text-anchor:middle;stroke-width:1"
         id="tspan7485">PÓ MÍ FỎCINA GA</tspan><tspan
         sodipodi:role="line"
         x="510.70529"
         y="2653.7029"
         style="font-style:normal;font-variant:normal;font-weight:normal;font-stretch:normal;font-size:53.3333px;font-family:'SH Pinscher';-inkscape-font-specification:'SH Pinscher';text-align:center;text-anchor:middle;stroke-width:1"
         id="tspan1762">GA CHỈJIO</tspan></text>
    <text
       xml:space="preserve"
       style="font-size:45.3333px;line-height:1.1;font-family:Inter;-inkscape-font-specification:'Inter, Normal';stroke-width:1"
       x="767.65564"
       y="3710.717"
       id="text1891-1-0"><tspan
         sodipodi:role="line"
         x="767.65564"
         y="3710.717"
         style="font-style:normal;font-variant:normal;font-weight:normal;font-stretch:normal;font-size:45.3333px;font-family:'SH Pinscher';-inkscape-font-specification:'SH Pinscher';text-align:center;text-anchor:middle;stroke-width:1"
         id="tspan53829-1">-SHẺQPOQ-</tspan></text>
    <text
       xml:space="preserve"
       style="font-size:32px;line-height:1.1;font-family:Inter;-inkscape-font-specification:'Inter, Normal';letter-spacing:0px;stroke-width:0.999998"
       x="529.41339"
       y="14752.269"
       id="text1891-1-0-3"><tspan
         sodipodi:role="line"
         x="529.41339"
         y="14752.269"
         style="font-style:normal;font-variant:normal;font-weight:normal;font-stretch:normal;font-size:32px;font-family:'SH Pinscher';-inkscape-font-specification:'SH Pinscher';text-align:center;text-anchor:middle;fill:#032c46;fill-opacity:1;stroke-width:0.999998"
         id="tspan53829-1-5">Sỏa súq míy ba!</tspan></text>
    <text
       xml:space="preserve"
       style="font-size:56px;line-height:1.1;font-family:Inter;-inkscape-font-specification:'Inter, Normal';stroke-width:1"
       x="767.65564"
       y="3652.717"
       id="text35291-9-7"><tspan
         sodipodi:role="line"
         x="767.65564"
         y="3652.717"
         style="font-style:normal;font-variant:normal;font-weight:normal;font-stretch:normal;font-size:56px;font-family:'SH Pinscher';-inkscape-font-specification:'SH Pinscher';text-align:center;text-anchor:middle;stroke-width:1"
         id="tspan35939-9-7">MÍ CẺRIKY</tspan></text>
    <text
       xml:space="preserve"
       style="font-size:29.3333px;line-height:1.1;font-family:Inter;-inkscape-font-specification:'Inter, Normal';stroke-width:1"
       x="325.94357"
       y="5210.1504"
       id="text5847-3-4"><tspan
         sodipodi:role="line"
         x="325.94357"
         y="5210.1504"
         style="font-style:normal;font-variant:normal;font-weight:normal;font-stretch:normal;font-size:29.3333px;font-family:'Hoe!Komika Slim';-inkscape-font-specification:'Hoe!Komika Slim';text-align:center;text-anchor:middle;stroke-width:1"
         id="tspan537673">Hu jóq</tspan><tspan
         sodipodi:role="line"
         x="325.94357"
         y="5247.4004"
         style="font-style:normal;font-variant:normal;font-weight:normal;font-stretch:normal;font-size:29.3333px;font-family:'Hoe!Komika Slim';-inkscape-font-specification:'Hoe!Komika Slim';text-align:center;text-anchor:middle;stroke-width:1"
         id="tspan77698">chẻ jỉaokuq,</tspan><tspan
         sodipodi:role="line"
         x="325.94357"
         y="5284.6504"
         style="font-style:normal;font-variant:normal;font-weight:normal;font-stretch:normal;font-size:29.3333px;font-family:'Hoe!Komika Slim';-inkscape-font-specification:'Hoe!Komika Slim';text-align:center;text-anchor:middle;stroke-width:1"
         id="tspan26100">sa chẻ bủka bı…</tspan><tspan
         sodipodi:role="line"
         x="325.94357"
         y="5321.9009"
         style="font-style:normal;font-variant:normal;font-weight:normal;font-stretch:normal;font-size:29.3333px;font-family:'Hoe!Komika Slim';-inkscape-font-specification:'Hoe!Komika Slim';text-align:center;text-anchor:middle;stroke-width:1"
         id="tspan41004">dủı hỉaq hó</tspan><tspan
         sodipodi:role="line"
         x="325.94357"
         y="5359.1509"
         style="font-style:normal;font-variant:normal;font-weight:normal;font-stretch:normal;font-size:29.3333px;font-family:'Hoe!Komika Slim';-inkscape-font-specification:'Hoe!Komika Slim';text-align:center;text-anchor:middle;stroke-width:1"
         id="tspan44968">bô ja ja</tspan><tspan
         sodipodi:role="line"
         x="325.94357"
         y="5396.4009"
         style="font-style:normal;font-variant:normal;font-weight:normal;font-stretch:normal;font-size:29.3333px;font-family:'Hoe!Komika Slim';-inkscape-font-specification:'Hoe!Komika Slim';text-align:center;text-anchor:middle;stroke-width:1"
         id="tspan59998">nủaıloha.</tspan></text>
    <text
       xml:space="preserve"
       style="font-size:29.3333px;line-height:1.1;font-family:Inter;-inkscape-font-specification:'Inter, Normal';stroke-width:1"
       x="785.26904"
       y="5259.4131"
       id="text5847-3-4-3"><tspan
         sodipodi:role="line"
         x="785.26904"
         y="5259.4131"
         style="font-style:normal;font-variant:normal;font-weight:normal;font-stretch:normal;font-size:29.3333px;font-family:'Hoe!Komika Slim';-inkscape-font-specification:'Hoe!Komika Slim';text-align:center;text-anchor:middle;stroke-width:1"
         id="tspan110446-5">Tıu tảo shảı</tspan><tspan
         sodipodi:role="line"
         x="785.26904"
         y="5296.6631"
         style="font-style:normal;font-variant:normal;font-weight:normal;font-stretch:normal;font-size:29.3333px;font-family:'Hoe!Komika Slim';-inkscape-font-specification:'Hoe!Komika Slim';text-align:center;text-anchor:middle;stroke-width:1"
         id="tspan113783">bỏ máy nháo ba!</tspan><tspan
         sodipodi:role="line"
         x="785.26904"
         y="5333.9131"
         style="font-style:normal;font-variant:normal;font-weight:normal;font-stretch:normal;font-size:29.3333px;font-family:'Hoe!Komika Slim';-inkscape-font-specification:'Hoe!Komika Slim';text-align:center;text-anchor:middle;stroke-width:1"
         id="tspan120491">Dùaı bô há sıa nủaı</tspan><tspan
         sodipodi:role="line"
         x="785.26904"
         y="5371.1636"
         style="font-style:normal;font-variant:normal;font-weight:normal;font-stretch:normal;font-size:29.3333px;font-family:'Hoe!Komika Slim';-inkscape-font-specification:'Hoe!Komika Slim';text-align:center;text-anchor:middle;stroke-width:1"
         id="tspan151156">bı bủ rỉu mỉe</tspan><tspan
         sodipodi:role="line"
         x="785.26904"
         y="5408.4136"
         style="font-style:normal;font-variant:normal;font-weight:normal;font-stretch:normal;font-size:29.3333px;font-family:'Hoe!Komika Slim';-inkscape-font-specification:'Hoe!Komika Slim';text-align:center;text-anchor:middle;stroke-width:1"
         id="tspan152736">há da!</tspan></text>
    <text
       xml:space="preserve"
       style="font-size:34.6667px;line-height:1.1;font-family:Inter;-inkscape-font-specification:'Inter, Normal';stroke-width:1"
       x="510.65512"
       y="6845.1479"
       id="text5847-3-4-3-7"><tspan
         sodipodi:role="line"
         x="510.65512"
         y="6845.1479"
         style="font-style:normal;font-variant:normal;font-weight:normal;font-stretch:normal;font-size:34.6667px;font-family:'Hoe!Komika Slim';-inkscape-font-specification:'Hoe!Komika Slim';text-align:center;text-anchor:middle;stroke-width:1"
         id="tspan155494">Sa pảı bı lảo</tspan><tspan
         sodipodi:role="line"
         x="510.65512"
         y="6889.1709"
         style="font-style:normal;font-variant:normal;font-weight:normal;font-stretch:normal;font-size:34.6667px;font-family:'Hoe!Komika Slim';-inkscape-font-specification:'Hoe!Komika Slim';text-align:center;text-anchor:middle;stroke-width:1"
         id="tspan156342">jí zâq hó dâ.</tspan></text>
    <text
       xml:space="preserve"
       style="font-size:32px;line-height:1.1;font-family:Inter;-inkscape-font-specification:'Inter, Normal';stroke-width:1"
       x="279.24179"
       y="7619.1538"
       id="text5847-3-4-3-7-0"><tspan
         sodipodi:role="line"
         x="279.24179"
         y="7619.1538"
         style="font-style:normal;font-variant:normal;font-weight:normal;font-stretch:normal;font-size:32px;font-family:'Hoe!Komika Slim';-inkscape-font-specification:'Hoe!Komika Slim';text-align:center;text-anchor:middle;stroke-width:1"
         id="tspan155494-2">Ả, nỉ</tspan><tspan
         sodipodi:role="line"
         x="279.24179"
         y="7659.7905"
         style="font-style:normal;font-variant:normal;font-weight:normal;font-stretch:normal;font-size:32px;font-family:'Hoe!Komika Slim';-inkscape-font-specification:'Hoe!Komika Slim';text-align:center;text-anchor:middle;stroke-width:1"
         id="tspan171860">nháo</tspan><tspan
         sodipodi:role="line"
         x="279.24179"
         y="7700.4268"
         style="font-style:normal;font-variant:normal;font-weight:normal;font-stretch:normal;font-size:32px;font-family:'Hoe!Komika Slim';-inkscape-font-specification:'Hoe!Komika Slim';text-align:center;text-anchor:middle;stroke-width:1"
         id="tspan158524">da.</tspan></text>
    <text
       xml:space="preserve"
       style="font-size:34.6667px;line-height:1.1;font-family:Inter;-inkscape-font-specification:'Inter, Normal';stroke-width:1"
       x="458.68784"
       y="8814.373"
       id="text5847-3-4-3-7-0-6"><tspan
         sodipodi:role="line"
         x="458.68784"
         y="8814.373"
         style="font-style:normal;font-variant:normal;font-weight:normal;font-stretch:normal;font-size:34.6667px;font-family:'Hoe!Komika Slim';-inkscape-font-specification:'Hoe!Komika Slim';text-align:center;text-anchor:middle;stroke-width:1"
         id="tspan192176">Gảq sıa pỏq</tspan><tspan
         sodipodi:role="line"
         x="458.68784"
         y="8858.3955"
         style="font-style:normal;font-variant:normal;font-weight:normal;font-stretch:normal;font-size:34.6667px;font-family:'Hoe!Komika Slim';-inkscape-font-specification:'Hoe!Komika Slim';text-align:center;text-anchor:middle;stroke-width:1"
         id="tspan192618">nháo sôı ja</tspan><tspan
         sodipodi:role="line"
         x="458.68784"
         y="8902.4189"
         style="font-style:normal;font-variant:normal;font-weight:normal;font-stretch:normal;font-size:34.6667px;font-family:'Hoe!Komika Slim';-inkscape-font-specification:'Hoe!Komika Slim';text-align:center;text-anchor:middle;stroke-width:1"
         id="tspan201282">rúaı ỉoma da.</tspan></text>
    <text
       xml:space="preserve"
       style="font-size:37.3333px;line-height:1.1;font-family:Inter;-inkscape-font-specification:'Inter, Normal';stroke-width:1"
       x="208.38585"
       y="11522.449"
       id="text5847-3-4-3-7-0-6-9"><tspan
         sodipodi:role="line"
         x="208.38585"
         y="11522.449"
         style="font-style:normal;font-variant:normal;font-weight:normal;font-stretch:normal;font-size:37.3333px;font-family:'Hoe!Komika Slim';-inkscape-font-specification:'Hoe!Komika Slim';text-align:center;text-anchor:middle;stroke-width:1"
         id="tspan186346-8">Ehehe∼</tspan><tspan
         sodipodi:role="line"
         x="208.38585"
         y="11571.378"
         style="font-style:normal;font-variant:normal;font-weight:normal;font-stretch:normal;font-size:37.3333px;font-family:'Hoe!Komika Slim';-inkscape-font-specification:'Hoe!Komika Slim';text-align:center;text-anchor:middle;stroke-width:1"
         id="tspan78686">Káqhua bı, ảı</tspan><tspan
         sodipodi:role="line"
         x="208.38585"
         y="11618.787"
         style="font-style:normal;font-variant:normal;font-weight:normal;font-stretch:normal;font-size:37.3333px;font-family:'Hoe!Komika Slim';-inkscape-font-specification:'Hoe!Komika Slim';text-align:center;text-anchor:middle;stroke-width:1"
         id="tspan527950">kỏa máq rào</tspan><tspan
         sodipodi:role="line"
         x="208.38585"
         y="11666.196"
         style="font-style:normal;font-variant:normal;font-weight:normal;font-stretch:normal;font-size:37.3333px;font-family:'Hoe!Komika Slim';-inkscape-font-specification:'Hoe!Komika Slim';text-align:center;text-anchor:middle;stroke-width:1"
         id="tspan442706">tûa mủaq rúaı</tspan><tspan
         sodipodi:role="line"
         x="208.38585"
         y="11713.605"
         style="font-style:normal;font-variant:normal;font-weight:normal;font-stretch:normal;font-size:37.3333px;font-family:'Hoe!Komika Slim';-inkscape-font-specification:'Hoe!Komika Slim';text-align:center;text-anchor:middle;stroke-width:1"
         id="tspan450442">mỉ Bẻly jí…</tspan></text>
    <text
       xml:space="preserve"
       style="font-size:26.6667px;line-height:1.1;font-family:Inter;-inkscape-font-specification:'Inter, Normal';stroke-width:1"
       x="-2870.8921"
       y="13331.938"
       id="text5847-3-4-3-7-0-6-9-6"
       transform="rotate(-13.362904)"><tspan
         sodipodi:role="line"
         x="-2870.8921"
         y="13331.938"
         style="font-style:normal;font-variant:normal;font-weight:normal;font-stretch:normal;font-size:26.6667px;font-family:'Hoe!Komika Slim';-inkscape-font-specification:'Hoe!Komika Slim';text-align:center;text-anchor:middle;stroke-width:1"
         id="tspan223576-2">Hu mí Cẻrı!</tspan><tspan
         sodipodi:role="line"
         x="-2870.8921"
         y="13365.802"
         style="font-style:normal;font-variant:normal;font-weight:normal;font-stretch:normal;font-size:26.6667px;font-family:'Hoe!Komika Slim';-inkscape-font-specification:'Hoe!Komika Slim';text-align:center;text-anchor:middle;stroke-width:1"
         id="tspan257224">Lả shảo jí</tspan><tspan
         sodipodi:role="line"
         x="-2870.8921"
         y="13399.665"
         style="font-style:normal;font-variant:normal;font-weight:normal;font-stretch:normal;font-size:26.6667px;font-family:'Hoe!Komika Slim';-inkscape-font-specification:'Hoe!Komika Slim';text-align:center;text-anchor:middle;stroke-width:1"
         id="tspan351604">gêq jí nháo</tspan><tspan
         sodipodi:role="line"
         x="-2870.8921"
         y="13433.529"
         style="font-style:normal;font-variant:normal;font-weight:normal;font-stretch:normal;font-size:26.6667px;font-family:'Hoe!Komika Slim';-inkscape-font-specification:'Hoe!Komika Slim';text-align:center;text-anchor:middle;stroke-width:1"
         id="tspan351612">nĩqguo da!</tspan></text>
    <text
       xml:space="preserve"
       style="font-size:42.6667px;line-height:1.1;font-family:Inter;-inkscape-font-specification:'Inter, Normal';stroke-width:1"
       x="222.86433"
       y="12079.111"
       id="text5847-3-4-3-7-0-6-9-9"><tspan
         sodipodi:role="line"
         x="222.86433"
         y="12079.111"
         style="font-style:normal;font-variant:normal;font-weight:normal;font-stretch:normal;font-size:42.6667px;font-family:'Hoe!Komika Slim';-inkscape-font-specification:'Hoe!Komika Slim';text-align:center;text-anchor:middle;stroke-width:1"
         id="tspan186346-8-7">Ume∼<tspan
   style="font-size:37.3333px"
   id="tspan372328">♥</tspan></tspan><tspan
         sodipodi:role="line"
         x="222.86433"
         y="12135.03"
         style="font-style:normal;font-variant:normal;font-weight:normal;font-stretch:normal;font-size:42.6667px;font-family:'Hoe!Komika Slim';-inkscape-font-specification:'Hoe!Komika Slim';text-align:center;text-anchor:middle;stroke-width:1"
         id="tspan223576-3">rúaı mỉ Bẻly</tspan><tspan
         sodipodi:role="line"
         x="222.86433"
         y="12189.212"
         style="font-style:normal;font-variant:normal;font-weight:normal;font-stretch:normal;font-size:42.6667px;font-family:'Hoe!Komika Slim';-inkscape-font-specification:'Hoe!Komika Slim';text-align:center;text-anchor:middle;stroke-width:1"
         id="tspan243620">…</tspan></text>
    <text
       xml:space="preserve"
       style="font-size:42.6667px;line-height:1.1;font-family:Inter;-inkscape-font-specification:'Inter, Normal';stroke-width:1"
       x="568.9751"
       y="13375.453"
       id="text5847-3-4-3-7-0-6-9-9-3"><tspan
         sodipodi:role="line"
         x="568.9751"
         y="13375.453"
         style="font-style:normal;font-variant:normal;font-weight:normal;font-stretch:normal;font-size:42.6667px;font-family:'Hoe!Komika Slim';-inkscape-font-specification:'Hoe!Komika Slim';text-align:center;text-anchor:middle;stroke-width:1"
         id="tspan12175">Keo ní lỉq bı…</tspan><tspan
         sodipodi:role="line"
         x="568.9751"
         y="13453.135"
         style="font-style:normal;font-variant:normal;font-weight:normal;font-stretch:normal;font-size:64px;font-family:'Hoe!Komika Slick';-inkscape-font-specification:'Hoe!Komika Slick';text-align:center;text-anchor:middle;stroke-width:1"
         id="tspan16865">nủ hó…</tspan></text>
    <text
       xml:space="preserve"
       style="font-size:42.6667px;line-height:1.1;font-family:Inter;-inkscape-font-specification:'Inter, Normal';stroke-width:1"
       x="528.43793"
       y="9971.8438"
       id="text5847-3-4-3-7-0-6-2"><tspan
         sodipodi:role="line"
         x="528.43793"
         y="9971.8438"
         style="font-style:normal;font-variant:normal;font-weight:normal;font-stretch:normal;font-size:42.6667px;font-family:'Hoe!Komika Slim';-inkscape-font-specification:'Hoe!Komika Slim';text-align:center;text-anchor:middle;stroke-width:1"
         id="tspan186346-5">Nho, ảo jâq</tspan><tspan
         sodipodi:role="line"
         x="528.43793"
         y="10026.025"
         style="font-style:normal;font-variant:normal;font-weight:normal;font-stretch:normal;font-size:42.6667px;font-family:'Hoe!Komika Slim';-inkscape-font-specification:'Hoe!Komika Slim';text-align:center;text-anchor:middle;stroke-width:1"
         id="tspan302988">gỉ ní cy jêo</tspan><tspan
         sodipodi:role="line"
         x="528.43793"
         y="10080.208"
         style="font-style:normal;font-variant:normal;font-weight:normal;font-stretch:normal;font-size:42.6667px;font-family:'Hoe!Komika Slim';-inkscape-font-specification:'Hoe!Komika Slim';text-align:center;text-anchor:middle;stroke-width:1"
         id="tspan206172">bóu da…</tspan></text>
    <text
       xml:space="preserve"
       style="font-size:32px;line-height:1.1;font-family:Inter;-inkscape-font-specification:'Inter, Normal';stroke-width:1"
       x="547.96918"
       y="9064.6621"
       id="text5847-3-4-3-7-0-6-7"><tspan
         sodipodi:role="line"
         x="547.96918"
         y="9064.6621"
         style="font-style:normal;font-variant:normal;font-weight:normal;font-stretch:normal;font-size:34.6667px;font-family:'Hoe!Komika Slick';-inkscape-font-specification:'Hoe!Komika Slick';text-align:center;text-anchor:middle;stroke-width:1"
         id="tspan186346-0">ÉE!?</tspan><tspan
         sodipodi:role="line"
         x="547.96918"
         y="9105.2988"
         style="font-style:normal;font-variant:normal;font-weight:normal;font-stretch:normal;font-size:32px;font-family:'Hoe!Komika Slim';-inkscape-font-specification:'Hoe!Komika Slim';text-align:center;text-anchor:middle;stroke-width:1"
         id="tspan259276">Shè sôı nháo</tspan><tspan
         sodipodi:role="line"
         x="547.96918"
         y="9145.9355"
         style="font-style:normal;font-variant:normal;font-weight:normal;font-stretch:normal;font-size:32px;font-family:'Hoe!Komika Slim';-inkscape-font-specification:'Hoe!Komika Slim';text-align:center;text-anchor:middle;stroke-width:1"
         id="tspan276448">nũ bı lẻ jảq tẻa</tspan><tspan
         sodipodi:role="line"
         x="547.96918"
         y="9186.5713"
         style="font-style:normal;font-variant:normal;font-weight:normal;font-stretch:normal;font-size:32px;font-family:'Hoe!Komika Slim';-inkscape-font-specification:'Hoe!Komika Slim';text-align:center;text-anchor:middle;stroke-width:1"
         id="tspan279832">fúy nãı da!</tspan></text>
    <text
       xml:space="preserve"
       style="font-size:32px;line-height:1.1;font-family:Inter;-inkscape-font-specification:'Inter, Normal';stroke-width:1"
       x="582.00409"
       y="6156.356"
       id="text5847-3-4-3-6"><tspan
         sodipodi:role="line"
         x="582.00409"
         y="6156.356"
         style="font-style:normal;font-variant:normal;font-weight:normal;font-stretch:normal;font-size:34.6667px;font-family:'Hoe!Komika Slick';-inkscape-font-specification:'Hoe!Komika Slick';text-align:center;text-anchor:middle;stroke-width:1"
         id="tspan120491-2">Hu ní!</tspan><tspan
         sodipodi:role="line"
         x="582.00409"
         y="6196.9927"
         style="font-style:normal;font-variant:normal;font-weight:normal;font-stretch:normal;font-size:32px;font-family:'Hoe!Komika Slim';-inkscape-font-specification:'Hoe!Komika Slim';text-align:center;text-anchor:middle;stroke-width:1"
         id="tspan126636">Je cả hı rảı</tspan><tspan
         sodipodi:role="line"
         x="582.00409"
         y="6237.6289"
         style="font-style:normal;font-variant:normal;font-weight:normal;font-stretch:normal;font-size:32px;font-family:'Hoe!Komika Slim';-inkscape-font-specification:'Hoe!Komika Slim';text-align:center;text-anchor:middle;stroke-width:1"
         id="tspan126638">hôaı tỉ súq</tspan><tspan
         sodipodi:role="line"
         x="582.00409"
         y="6278.2656"
         style="font-style:normal;font-variant:normal;font-weight:normal;font-stretch:normal;font-size:32px;font-family:'Hoe!Komika Slim';-inkscape-font-specification:'Hoe!Komika Slim';text-align:center;text-anchor:middle;stroke-width:1"
         id="tspan153574">ní moq?</tspan></text>
    <path
       style="fill:none;stroke:#000000;stroke-width:3.13501;stroke-linecap:round;stroke-linejoin:round;stroke-miterlimit:4;stroke-dasharray:none;stroke-opacity:1"
       d="m 664.87373,13721.089 c -1.07887,-2.257 -7.75526,1.76 -7.64625,6.153 0.12677,5.1 4.26398,6.259 6.84452,5.073 3.40877,-1.567 1.88041,-8.969 0.80173,-11.226 z"
       id="path152985-6"
       sodipodi:nodetypes="zsaz" />
    <path
       style="fill:none;stroke:#000000;stroke-width:3.13501;stroke-linecap:round;stroke-linejoin:round;stroke-miterlimit:4;stroke-dasharray:none;stroke-opacity:1"
       d="m 664.87373,13721.089 c 0,0 3.51685,9.163 6.98762,10.968"
       id="path152987-7" />
    <path
       style="fill:none;stroke:#000000;stroke-width:3.13501;stroke-linecap:round;stroke-linejoin:round;stroke-miterlimit:4;stroke-dasharray:none;stroke-opacity:1"
       d="m 678.20465,13716.847 c 0,0 -6.26743,0.714 -4.77751,4.401 0.93714,2.318 9.12957,0.899 8.94696,5.627 -0.11091,2.872 -5.2961,2.919 -5.2961,2.919"
       id="path152989-5"
       sodipodi:nodetypes="cssc" />
    <path
       style="fill:none;stroke:#000000;stroke-width:3.13501;stroke-linecap:round;stroke-linejoin:round;stroke-miterlimit:4;stroke-dasharray:none;stroke-opacity:1"
       d="m 695.25477,13715.155 c -1.33304,-2.107 -4.22797,-1.191 -6.54602,2.306 -2.318,3.496 -2.13455,10.51 4.49701,8.308 6.63161,-2.204 2.98345,-9.139 2.04901,-10.614 z"
       id="path152991-3"
       sodipodi:nodetypes="ssss" />
    <path
       style="fill:none;stroke:#000000;stroke-width:3.13501;stroke-linecap:round;stroke-linejoin:round;stroke-miterlimit:4;stroke-dasharray:none;stroke-opacity:1"
       d="m 695.25477,13715.155 c 0,0 4.19453,8.864 5.49392,9.51"
       id="path152993-5" />
    <path
       style="fill:none;stroke:#000000;stroke-width:2.61249;stroke-linecap:round;stroke-linejoin:round;stroke-miterlimit:4;stroke-dasharray:none;stroke-opacity:1"
       d="m 657.30421,13712.819 c 0,0 2.64026,-2.096 3.78039,0.261 0.57924,1.197 -0.56434,3.126 -0.99608,4.128"
       id="path153634-6"
       sodipodi:nodetypes="csc" />
    <text
       xml:space="preserve"
       style="font-size:104px;line-height:1.25;font-family:Inter;-inkscape-font-specification:'Inter, Normal'"
       id="text114493"
       transform="matrix(1,0,0.38088465,1,-3567.6635,-14.567708)"><textPath
         xlink:href="#path138914"
         id="textPath139038"
         style="font-style:normal;font-variant:normal;font-weight:normal;font-stretch:normal;font-size:104px;font-family:'Caligraf Bold PERSONAL USE';-inkscape-font-specification:'Caligraf Bold PERSONAL USE';fill:#8e0902;fill-opacity:1">Tủa mỉe!</textPath></text>
    <path
       style="fill:none;stroke:none;stroke-width:0.999998px;stroke-linecap:butt;stroke-linejoin:miter;stroke-opacity:1;fill-opacity:1"
       d="m 373.13841,9374.8176 c 0,0 92.32322,25.6255 188.04363,25.7085 95.72042,0.083 162.33636,-28.2095 162.33636,-28.2095"
       id="path138914" />
    <text
       xml:space="preserve"
       style="font-size:32px;line-height:1.1;font-family:Inter;-inkscape-font-specification:'Inter, Normal';stroke-width:0.999998"
       x="529.41339"
       y="14842.269"
       id="text1076"><tspan
         sodipodi:role="line"
         x="529.41339"
         y="14842.269"
         style="font-style:normal;font-variant:normal;font-weight:normal;font-stretch:normal;font-size:32px;font-family:'SH Pinscher';-inkscape-font-specification:'SH Pinscher';text-align:center;text-anchor:middle;fill:#032c46;fill-opacity:1;stroke-width:0.999998"
         id="tspan1074">.com/color_les</tspan></text>
    <path
       style="fill:none;stroke:#ffffff;stroke-width:6;stroke-linecap:round;stroke-linejoin:round;stroke-miterlimit:4;stroke-dasharray:none;stroke-opacity:1"
       d="m 672.66677,3901.9474 c 0,0 13.33343,30.9692 14.77763,43.1773 0.0254,4e-4 -3.94888,-30.6029 8.84631,-29.2184 12.7952,1.3844 11.96445,26.755 11.96445,26.755"
       id="path152983"
       sodipodi:nodetypes="ccsc" />
    <path
       style="fill:none;stroke:#ffffff;stroke-width:6;stroke-linecap:round;stroke-linejoin:round;stroke-miterlimit:4;stroke-dasharray:none;stroke-opacity:1"
       d="m 732.03424,3911.9718 c -2.87654,-4.1917 -15.38751,3.0113 -13.54481,16.2723 1.84268,13.2611 11.37054,10.4122 16.07674,6.9618 6.29812,-4.6175 0.34461,-19.0424 -2.53193,-23.2341 z"
       id="path152985"
       sodipodi:nodetypes="zsaz" />
    <path
       style="fill:none;stroke:#ffffff;stroke-width:6;stroke-linecap:round;stroke-linejoin:round;stroke-opacity:1;stroke-miterlimit:4;stroke-dasharray:none"
       d="m 732.03424,3911.9718 c 0,0 10.03116,17.3495 17.31133,19.693"
       id="path152987" />
    <path
       style="fill:none;stroke:#ffffff;stroke-width:6;stroke-linecap:round;stroke-linejoin:round;stroke-opacity:1;stroke-miterlimit:4;stroke-dasharray:none"
       d="m 760.30162,3901.7545 c 0,0 -11.51621,3.6177 -8.17485,13.008 3.34135,9.3903 13.9818,1.5502 15.1098,6.8426 1.12799,5.2923 -9.09146,9.1048 -9.09146,9.1048"
       id="path152989" />
    <path
       style="fill:none;stroke:#ffffff;stroke-width:6;stroke-linecap:round;stroke-linejoin:round;stroke-miterlimit:4;stroke-dasharray:none;stroke-opacity:1"
       d="m 790.71545,3900.156 c -2.89087,-4.1569 -12.83309,-2.9022 -16.81453,4.706 -3.98144,7.6083 1.86459,23.2153 14.39393,17.6125 12.52932,-5.6026 4.44686,-19.4049 2.4206,-22.3185 z"
       id="path152991"
       sodipodi:nodetypes="ssss" />
    <path
       style="fill:none;stroke:#ffffff;stroke-width:6;stroke-linecap:round;stroke-linejoin:round;stroke-opacity:1;stroke-miterlimit:4;stroke-dasharray:none"
       d="m 790.71545,3900.156 c 0,0 9.42305,17.7181 12.0355,18.8542"
       id="path152993" />
    <path
       style="fill:none;stroke:#ffffff;stroke-width:5;stroke-linecap:round;stroke-linejoin:round;stroke-miterlimit:4;stroke-dasharray:none;stroke-opacity:1"
       d="m 714.58817,3898.0122 c 0,0 4.28273,-5.303 7.31282,-0.9303 1.53909,2.2211 0.0536,6.6024 -0.40806,8.8152"
       id="path153634"
       sodipodi:nodetypes="csc" />
    <path
       id="path169789"
       style="color:#000000;fill:#581e1a;stroke-linecap:round;stroke-linejoin:round;stroke:#ffffff;stroke-opacity:1;paint-order:stroke fill markers;stroke-width:8;stroke-miterlimit:4;stroke-dasharray:none"
       d="M 744.55078 7493.791 A 4.5 4.5 0 0 0 740.93555 7497.2461 C 740.93555 7497.2461 729.02763 7550.5664 726.45312 7598.0762 A 4.5 4.5 0 0 0 730.70312 7602.8125 A 4.5 4.5 0 0 0 735.43945 7598.5625 C 737.95218 7552.1927 749.7207 7499.2031 749.7207 7499.2031 A 4.5 4.5 0 0 0 746.30664 7493.832 A 4.5 4.5 0 0 0 744.55078 7493.791 z M 699.61719 7498.4082 A 4.5 4.5 0 0 0 694.75391 7502.5137 C 694.75391 7502.5137 692.20156 7533.2 698.58008 7601.248 A 4.5 4.5 0 0 0 703.48047 7605.3086 A 4.5 4.5 0 0 0 707.54102 7600.4082 C 701.20637 7532.8282 703.72266 7503.2695 703.72266 7503.2695 A 4.5 4.5 0 0 0 699.61719 7498.4082 z M 554.25586 7517.6504 C 553.96262 7517.6547 553.67604 7517.6702 553.39648 7517.6973 C 551.16006 7517.9134 549.27441 7518.6681 547.67773 7519.4805 C 544.48439 7521.1052 542.20703 7523.2188 542.20703 7523.2188 A 4.5 4.5 0 0 0 541.90625 7529.5762 A 4.5 4.5 0 0 0 548.26172 7529.8789 C 548.26172 7529.8789 549.86061 7528.4682 551.75977 7527.502 C 552.70934 7527.0188 553.67492 7526.713 554.26172 7526.6562 C 554.68489 7526.6152 554.75204 7526.6932 554.88281 7526.7637 C 554.90441 7526.9017 554.95295 7527.1326 554.93555 7527.7109 C 554.89615 7529.0252 554.46617 7531.1029 553.83008 7533.1973 C 553.19399 7535.2916 552.3821 7537.4275 551.69727 7539.1895 C 551.35485 7540.0704 551.04464 7540.854 550.78906 7541.5508 C 550.53349 7542.2476 550.29138 7542.4701 550.14453 7543.957 A 4.5 4.5 0 0 0 554.17969 7548.877 A 4.5 4.5 0 0 0 559.09961 7544.8418 C 558.99931 7545.8573 559.04411 7545.1798 559.23828 7544.6504 C 559.43245 7544.121 559.73579 7543.352 560.08594 7542.4512 C 560.78624 7540.6495 561.68322 7538.3088 562.44141 7535.8125 C 563.19959 7533.3162 563.84852 7530.6902 563.92969 7527.9805 C 564.01089 7525.2707 563.47507 7521.8633 560.58984 7519.6562 C 558.64852 7518.1712 556.30855 7517.6202 554.25586 7517.6504 z M 634.2168 7526.6094 C 633.95364 7526.6138 633.68293 7526.6347 633.40625 7526.6738 C 630.00138 7527.1555 629.02555 7529.3978 628.1875 7531.0762 C 627.34945 7532.7545 626.72835 7534.671 626.11328 7536.9863 C 624.88315 7541.617 623.78541 7547.7903 622.74023 7555.127 C 621.46695 7564.0647 620.30438 7574.775 619.23633 7586.0586 C 617.16069 7587.2499 615.63477 7588.1094 615.63477 7588.1094 A 4.5 4.5 0 0 0 613.85547 7594.2207 A 4.5 4.5 0 0 0 618.2832 7596.4863 C 617.94638 7600.383 617.61411 7604.2999 617.30273 7608.2324 C 614.26332 7646.6192 612.4668 7684.7852 612.4668 7684.7852 A 4.5 4.5 0 0 0 616.75 7689.4902 A 4.5 4.5 0 0 0 621.45703 7685.207 C 621.45703 7685.207 623.251 7647.1384 626.27539 7608.9414 C 626.74024 7603.0705 627.24461 7597.2509 627.76562 7591.5137 C 632.37765 7588.7837 638.53314 7585.0119 644.86719 7580.7539 C 647.64973 7578.8833 650.46232 7576.9174 653.20508 7574.9004 C 661.00462 7594.6048 667.52148 7613.9219 667.52148 7613.9219 A 4.5 4.5 0 0 0 673.22266 7616.752 A 4.5 4.5 0 0 0 676.05078 7611.0508 C 676.05078 7611.0508 669.06121 7590.2786 660.79883 7569.6113 C 660.73546 7569.4528 660.66898 7569.2972 660.60547 7569.1387 C 661.51996 7568.3786 662.4189 7567.6167 663.28125 7566.8535 C 668.71911 7562.0411 673.15152 7557.4703 674.95898 7552.0234 A 4.5 4.5 0 0 0 672.10547 7546.3359 A 4.5 4.5 0 0 0 666.41602 7549.1895 C 665.70626 7551.3283 662.26888 7555.7321 657.31836 7560.1133 C 657.21578 7560.2041 657.10375 7560.2957 657 7560.3867 C 654.02108 7553.3309 650.98346 7546.6219 648.08398 7541.1445 C 646.0103 7537.2272 644.03945 7533.938 642.00781 7531.4062 C 640.99199 7530.1404 639.97405 7529.0483 638.68945 7528.1387 C 637.56543 7527.3427 636.05889 7526.5783 634.2168 7526.6094 z M 635.36914 7537.6562 C 636.71071 7539.4194 638.34479 7541.9814 640.13086 7545.3555 C 643.13963 7551.0392 646.46343 7558.4597 649.71289 7566.2754 C 646.54003 7568.6717 643.17739 7571.0454 639.8457 7573.2852 C 635.98634 7575.8796 632.23076 7578.258 628.82227 7580.3555 C 629.7068 7571.5971 630.65157 7563.4058 631.65039 7556.3945 C 632.66956 7549.2405 633.75452 7543.2722 634.81055 7539.2969 C 635.01684 7538.5203 635.16974 7538.2666 635.36914 7537.6562 z M 588.01367 7549.5566 C 567.83644 7551.0884 553.77931 7556.6742 544.74805 7562 C 535.71678 7567.3258 531.42969 7572.7305 531.42969 7572.7305 A 4.50045 4.50045 0 0 0 530.48828 7575.6699 C 530.48828 7575.6699 531.30028 7595.3895 533.3418 7617.7949 A 4.5 4.5 0 0 0 531.73828 7623.7031 A 4.5 4.5 0 0 0 534.11328 7625.7598 C 535.26412 7636.9815 536.71246 7648.3828 538.57422 7658.0566 C 540.60487 7668.6081 542.41588 7676.7984 546.95117 7681.9141 C 549.35952 7684.6306 553.00619 7685.7779 556.31836 7685.6504 C 559.63052 7685.5229 562.84687 7684.4383 566.14453 7682.8926 C 572.73985 7679.801 579.71986 7674.6746 586.33008 7669.1895 C 599.55052 7658.2192 611.13281 7645.6992 611.13281 7645.6992 A 4.5 4.5 0 0 0 610.89062 7639.3398 A 4.5 4.5 0 0 0 604.53125 7639.584 C 604.53125 7639.584 593.19916 7651.7956 580.58398 7662.2637 C 574.2764 7667.4977 567.60797 7672.2674 562.32422 7674.7441 C 559.68234 7675.9825 557.40314 7676.6012 555.97266 7676.6562 C 554.54217 7676.7113 554.19815 7676.5216 553.68555 7675.9434 C 552.37893 7674.4695 549.35185 7666.4346 547.41211 7656.3555 C 545.52814 7646.5662 544.02457 7634.5701 542.85938 7622.8691 L 574.89453 7605.7773 A 4.5 4.5 0 0 0 576.74805 7599.6895 A 4.5 4.5 0 0 0 574.08594 7597.502 A 4.5 4.5 0 0 0 570.6582 7597.8379 L 541.95312 7613.1543 C 540.33948 7594.5235 539.6789 7579.4956 539.58008 7577.1758 C 540.62673 7575.9933 543.11467 7573.4134 549.32031 7569.7539 C 557.21585 7565.0978 569.84165 7559.9625 588.69336 7558.5312 A 4.5 4.5 0 0 0 592.83984 7553.7031 A 4.5 4.5 0 0 0 588.01367 7549.5566 z M 731.41016 7608.7559 A 4.5 4.5 0 0 0 730.70508 7608.7891 A 4.5 4.5 0 0 0 726.79688 7613.8125 L 727.33008 7618.0742 A 4.5 4.5 0 0 0 732.35352 7621.9824 A 4.5 4.5 0 0 0 736.25977 7616.959 L 735.72852 7612.6973 A 4.5 4.5 0 0 0 731.41016 7608.7559 z M 706.07617 7610.8926 A 4.5 4.5 0 0 0 704.67969 7611.0742 A 4.5 4.5 0 0 0 701.63672 7616.6621 L 702.55273 7619.7656 A 4.5 4.5 0 0 0 708.14062 7622.8086 A 4.5 4.5 0 0 0 711.18359 7617.2188 L 710.26953 7614.1172 A 4.5 4.5 0 0 0 706.07617 7610.8926 z M 493.11133 7629.0391 C 492.05186 7629.0164 490.9929 7629.0232 489.93945 7629.0547 C 481.51185 7629.3064 473.27765 7631.1958 466.57812 7633.4863 C 459.8786 7635.7769 455.09428 7637.8658 451.9668 7641.0293 A 4.5 4.5 0 0 0 452.00391 7647.3926 A 4.5 4.5 0 0 0 453.89453 7648.1641 C 454.04947 7653.2386 454.63849 7673.4874 455.91406 7699.6348 C 456.62714 7714.2518 457.48723 7729.0962 458.47266 7740.8086 C 458.96537 7746.6648 459.48675 7751.7312 460.05273 7755.666 C 460.33573 7757.6334 460.62752 7759.3126 460.95898 7760.7383 C 461.29045 7762.164 461.44326 7763.1954 462.45508 7764.7285 C 463.78123 7766.7379 466.67952 7767.458 468.36328 7767.209 C 470.04704 7766.96 471.27338 7766.3312 472.57812 7765.5625 C 475.18763 7764.025 477.98658 7761.6934 481.18359 7758.6152 C 487.57761 7752.459 495.33145 7743.3434 502.78906 7732.6074 C 517.70428 7711.1354 531.76364 7683.4452 528.58789 7659.6934 C 527.01999 7647.9668 521.63675 7639.7049 514.36719 7634.9395 C 508.00631 7630.7696 500.52764 7629.198 493.11133 7629.0391 z M 492.90234 7638.041 C 499.13424 7638.1857 504.94968 7639.5274 509.43359 7642.4668 C 514.55806 7645.8261 518.36878 7651.168 519.66797 7660.8848 C 522.22642 7680.0197 509.69277 7706.8944 495.39844 7727.4727 C 488.25127 7737.7618 480.746 7746.5421 474.94141 7752.1309 C 472.60824 7754.3773 470.87826 7755.6438 469.36914 7756.6953 C 469.23189 7755.9338 469.10049 7755.3549 468.96094 7754.3848 C 468.43974 7750.7614 467.9258 7745.812 467.44141 7740.0547 C 466.47262 7728.5401 465.61464 7713.7582 464.9043 7699.1973 C 463.56003 7671.6417 462.85743 7647.7109 462.77344 7644.9102 C 464.66702 7643.9565 466.87817 7642.895 469.49023 7642.002 C 475.46924 7639.9578 482.97207 7638.267 490.20898 7638.0508 C 491.1136 7638.0238 492.01207 7638.0203 492.90234 7638.041 z " />
    <path
       style="fill:none;stroke:#000000;stroke-width:2.5;stroke-linecap:round;stroke-linejoin:round;stroke-miterlimit:4;stroke-dasharray:none;stroke-opacity:1"
       d="m 772.69398,7995.248 c 0,0 3.34087,-0.8309 3.50683,1.4491 0.16593,2.28 -0.55486,9.4597 -0.55486,9.4597 0,0 0.89085,-14.0336 4.77289,-10.1662 3.88203,3.8673 1.35788,9.286 1.35788,9.286 0,0 0.7519,-14.595 4.99114,-9.9334 3.95787,4.3522 1.31858,8.8802 1.31858,8.8802"
       id="path171451"
       sodipodi:nodetypes="cscscsc" />
    <path
       style="fill:none;stroke:#000000;stroke-width:2.5;stroke-linecap:round;stroke-linejoin:round;stroke-miterlimit:4;stroke-dasharray:none;stroke-opacity:1"
       d="m 792.71805,7992.9322 c 0,0 2.40136,7.7103 1.42525,10.6081"
       id="path171453" />
    <path
       style="fill:none;stroke:#000000;stroke-width:2.5;stroke-linecap:round;stroke-linejoin:round;stroke-miterlimit:4;stroke-dasharray:none;stroke-opacity:1"
       d="m 790.61529,7990.6053 c 0,0 3.79481,-3.4778 3.74543,-4.7595"
       id="path171455" />
    <path
       style="fill:none;stroke:#000000;stroke-width:2.5;stroke-linecap:round;stroke-linejoin:round;stroke-miterlimit:4;stroke-dasharray:none;stroke-opacity:1"
       d="m 756.3773,8036.3303 c 0,0 6.55707,-2.5695 8.13738,-8.878 1.58032,-6.3085 1.93177,-10.5535 1.93177,-10.5535 0,0 2.08346,13.2484 2.9994,14.3594 0.91594,1.111 10.11309,-16.5665 9.64434,-18.7322 -0.46875,-2.1658 1.66611,10.1976 1.44272,14.1467 -0.2234,3.9491 -1.52271,12.0641 -1.52271,12.0641"
       id="path171703" />
    <path
       style="fill:none;stroke:#000000;stroke-width:2.5;stroke-linecap:round;stroke-linejoin:round;stroke-miterlimit:4;stroke-dasharray:none;stroke-opacity:1"
       d="m 794.73335,8022.4175 c 0,0 -5.9586,-4.2524 -9.40147,4.7523 -3.44287,9.0046 7.46555,8.6198 9.40147,-4.7523 z"
       id="path171705" />
    <path
       style="fill:none;stroke:#000000;stroke-width:2.5;stroke-linecap:round;stroke-linejoin:round;stroke-miterlimit:4;stroke-dasharray:none;stroke-opacity:1"
       d="m 794.73335,8022.4175 c 0,0 -0.33571,10.5091 0.77792,11.5113"
       id="path171707" />
    <path
       style="fill:none;stroke:#000000;stroke-width:2.5;stroke-linecap:round;stroke-linejoin:round;stroke-miterlimit:4;stroke-dasharray:none;stroke-opacity:1"
       d="m 798.27983,8009.5192 c 0,0 0.16993,17.4912 2.45025,19.8966 2.28033,2.4052 4.27054,-3.4224 4.27054,-3.4224"
       id="path171709" />
    <path
       style="fill:none;stroke:#000000;stroke-width:2.5;stroke-linecap:round;stroke-linejoin:round;stroke-miterlimit:4;stroke-dasharray:none;stroke-opacity:1"
       d="m 811.68658,8015.7014 c -2.11289,0.5694 -5.30128,2.8833 -4.83336,5.9572 0.46792,3.074 2.85269,5.9754 6.15132,4.5743 3.29864,-1.401 5.58228,-4.0206 4.31447,-7.3512 -1.26781,-3.3305 -4.06248,-3.4418 -5.63243,-3.1803 z"
       id="path171711" />
    <path
       style="fill:none;stroke:#000000;stroke-width:2.5;stroke-linecap:round;stroke-linejoin:round;stroke-miterlimit:4;stroke-dasharray:none;stroke-opacity:1"
       d="m 818.51677,8014.1817 c 0,0 1.12484,-1.7983 2.54724,-0.7825 1.4224,1.0158 2.77933,8.0091 2.64007,9.4569 -0.13925,1.4479 -2.87217,-12.4791 5.86867,-11.834"
       id="path171713" />
    <path
       style="fill:none;stroke:#000000;stroke-width:2.5;stroke-linecap:round;stroke-linejoin:round;stroke-miterlimit:4;stroke-dasharray:none;stroke-opacity:1"
       d="m 833.40106,8009.6797 c 0,0 0.56034,9.3502 2.60152,10.2249 2.04119,0.8747 1.87831,-1.9604 1.87831,-1.9604"
       id="path171715" />
    <path
       style="fill:none;stroke:#000000;stroke-width:2.5;stroke-linecap:round;stroke-linejoin:round;stroke-miterlimit:4;stroke-dasharray:none;stroke-opacity:1"
       d="m 789.52871,8013.0366 c 0,0 1.36749,-1.0693 2.46703,-0.01 2.00061,1.9348 -0.63867,4.2445 -0.63867,4.2445"
       id="path171832"
       sodipodi:nodetypes="csc" />
    <path
       style="fill:none;stroke:#000000;stroke-width:3.135;stroke-linecap:round;stroke-linejoin:round;stroke-miterlimit:4;stroke-dasharray:none;stroke-opacity:1"
       d="m 629.82389,13717.682 c 0,0 5.18129,12.519 7.07429,24.177"
       id="path357968" />
    <path
       style="fill:none;stroke:#000000;stroke-width:3.135;stroke-linecap:round;stroke-linejoin:round;stroke-miterlimit:4;stroke-dasharray:none;stroke-opacity:1"
       d="m 642.64435,13714.57 c 0,0 6.68805,20.466 8.7196,28.779"
       id="path357970" />
    <path
       style="fill:none;stroke:#000000;stroke-width:3.135;stroke-linecap:round;stroke-linejoin:round;stroke-miterlimit:4;stroke-dasharray:none;stroke-opacity:1"
       d="m 631.31313,13728.875 c 0,0 17.48109,-4.542 20.79935,-8.35"
       id="path357972" />
    <path
       style="fill:none;stroke:#000000;stroke-width:3.135;stroke-linecap:round;stroke-linejoin:round;stroke-miterlimit:4;stroke-dasharray:none;stroke-opacity:1"
       d="m 707.43619,13721.619 1.25846,-0.385"
       id="path359709" />
    <path
       style="fill:none;stroke:#000000;stroke-width:3.135;stroke-linecap:round;stroke-linejoin:round;stroke-miterlimit:4;stroke-dasharray:none;stroke-opacity:1"
       d="m 715.98046,13719.165 1.21875,-0.04"
       id="path359711" />
    <path
       style="fill:none;stroke:#000000;stroke-width:3.135;stroke-linecap:round;stroke-linejoin:round;stroke-miterlimit:4;stroke-dasharray:none;stroke-opacity:1"
       d="m 724.89584,13716.762 1.09375,-0.899"
       id="path359713" />
    <path
       style="fill:none;stroke:#ffffff;stroke-width:2.4;stroke-linecap:round;stroke-linejoin:round;stroke-miterlimit:4;stroke-dasharray:none;stroke-opacity:1"
       d="m 76.231371,10985.019 c 0,0 13.747782,-9.161 22.018764,-9.236"
       id="path385051" />
    <path
       style="fill:none;stroke:#ffffff;stroke-width:2.4;stroke-linecap:round;stroke-linejoin:round;stroke-miterlimit:4;stroke-dasharray:none;stroke-opacity:1"
       d="m 82.192663,10981.462 c 0,0 2.312845,18.983 5.37013,28.424"
       id="path385053" />
    <path
       style="fill:none;stroke:#ffffff;stroke-width:2.4;stroke-linecap:round;stroke-linejoin:round;stroke-miterlimit:4;stroke-dasharray:none;stroke-opacity:1"
       d="m 81.73764,10992.686 c 0,0 8.358331,-4.826 10.833627,-3.755"
       id="path385055" />
    <path
       style="fill:none;stroke:#ffffff;stroke-width:2.4;stroke-linecap:round;stroke-linejoin:round;stroke-miterlimit:4;stroke-dasharray:none;stroke-opacity:1"
       d="m 99.44463,10988.948 c 0,0 1.95646,14.607 8.27099,13.551 6.31453,-1.057 6.71234,-12.426 5.06004,-16.26"
       id="path385057" />
    <path
       style="fill:none;stroke:#ffffff;stroke-width:2.4;stroke-linecap:round;stroke-linejoin:round;stroke-miterlimit:4;stroke-dasharray:none;stroke-opacity:1"
       d="m 119.24173,10995.499 c 0,0 3.56666,11.368 3.99709,16.509"
       id="path385059" />
    <path
       style="fill:none;stroke:#ffffff;stroke-width:2.4;stroke-linecap:round;stroke-linejoin:round;stroke-miterlimit:4;stroke-dasharray:none;stroke-opacity:1"
       d="m 120.84065,11000.957 c 0,0 6.26267,-7.399 10.42184,-6.471"
       id="path385061" />
    <path
       style="fill:none;stroke:#ffffff;stroke-width:2.4;stroke-linecap:round;stroke-linejoin:round;stroke-miterlimit:4;stroke-dasharray:none;stroke-opacity:1"
       d="m 137.43283,10993.225 c 0,0 3.29198,19.373 5.99987,15.517"
       id="path385063" />
    <path
       style="fill:none;stroke:#ffffff;stroke-width:1.8;stroke-linecap:round;stroke-linejoin:round;stroke-miterlimit:4;stroke-dasharray:none;stroke-opacity:1"
       d="m 103.92624,10978.154 c 0,0 3.05426,-2.739 4.17401,-1.464 1.11978,1.275 -0.9911,7.107 -0.9911,7.107"
       id="path385492" />
  </g>
</svg>
